<?xml version="1.0" encoding="UTF-8" standalone="no"?>
<svg xmlns:dc="http://purl.org/dc/elements/1.1/" xmlns:cc="http://creativecommons.org/ns#" xmlns:rdf="http://www.w3.org/1999/02/22-rdf-syntax-ns#" xmlns:svg="http://www.w3.org/2000/svg" xmlns="http://www.w3.org/2000/svg" xmlns:xlink="http://www.w3.org/1999/xlink" xmlns:sodipodi="http://sodipodi.sourceforge.net/DTD/sodipodi-0.dtd" xmlns:inkscape="http://www.inkscape.org/namespaces/inkscape" version="1.0" width="48" height="48" id="svg2" inkscape:version="0.47pre4 " sodipodi:docname="Emblem-club.svg">
  <metadata id="metadata3887">
    <rdf:RDF>
      <cc:Work rdf:about="">
        <dc:format>image/svg+xml</dc:format>
        <dc:type rdf:resource="http://purl.org/dc/dcmitype/StillImage"/>
        <dc:title/>
      </cc:Work>
    </rdf:RDF>
  </metadata>
  <sodipodi:namedview pagecolor="#ffffff" bordercolor="#666666" borderopacity="1" objecttolerance="10" gridtolerance="10" guidetolerance="10" inkscape:pageopacity="0" inkscape:pageshadow="2" inkscape:window-width="1395" inkscape:window-height="874" id="namedview3885" showgrid="false" inkscape:object-nodes="false" inkscape:zoom="6.9532167" inkscape:cx="39.753993" inkscape:cy="39.344411" inkscape:window-x="41" inkscape:window-y="-4" inkscape:window-maximized="1" inkscape:current-layer="svg2"/>
  <defs id="defs4">
    <linearGradient id="linearGradient4474">
      <stop offset="0" style="stop-color:#fff" id="stop4476"/>
      <stop offset="1" style="stop-color:#fff;stop-opacity:0" id="stop4478"/>
    </linearGradient>
    <inkscape:perspective sodipodi:type="inkscape:persp3d" inkscape:vp_x="0 : 24 : 1" inkscape:vp_y="0 : 1000 : 0" inkscape:vp_z="48 : 24 : 1" inkscape:persp3d-origin="24 : 16 : 1" id="perspective3889"/>
    <linearGradient id="G1">
      <stop id="s1" style="stop-color:#f5a108;stop-opacity:0" offset="0"/>
      <stop id="s2" style="stop-color:#fefdc3;stop-opacity:0.74" offset="1"/>
    </linearGradient>
  <!--  <linearGradient id="G2">
      <stop id="s3" style="stop-color:#000" offset="0"/>
      <stop id="s4" style="stop-color:#000;stop-opacity:0" offset="1"/>
    </linearGradient> -->
    <linearGradient id="G3">
      <stop id="s5" style="stop-color:#fff" offset="0"/>
      <stop id="s6" style="stop-color:#fff;stop-opacity:0" offset="1"/>
    </linearGradient>
    <radialGradient cx="17.3125" cy="25.53125" r="9.6875" fx="17.3125" fy="25.53125" id="R1" xlink:href="#G2" gradientUnits="userSpaceOnUse" gradientTransform="matrix(1,0,0,0.351613,0,16.55413)"/>
    <linearGradient x1="12.608996" y1="34.377342" x2="9.5879765" y2="9.5726242" id="G4" xlink:href="#G1" gradientUnits="userSpaceOnUse" gradientTransform="matrix(2.8866652,0,0,1.5492362,22.796348,-51.092549)"/>
    <linearGradient x1="37.521717" y1="36.008625" x2="18.094919" y2="-4.0458355" id="G5" xlink:href="#G3" gradientUnits="userSpaceOnUse" gradientTransform="matrix(1,0,0,1.0032625,0,-7.9931165e-2)"/>
    <linearGradient inkscape:collect="always" xlink:href="#linearGradient4474" id="linearGradient4472" x1="76.207245" y1="-7.1895361" x2="43.183071" y2="-43.949013" gradientUnits="userSpaceOnUse" gradientTransform="matrix(1,0,0,1.0544388,0,0.15994878)"/>
    <linearGradient inkscape:collect="always" xlink:href="#linearGradient4474" id="linearGradient2885" gradientUnits="userSpaceOnUse" gradientTransform="matrix(1,0,0,1.0544388,0,0.15994878)" x1="76.207245" y1="-7.1895361" x2="43.183071" y2="-43.949013"/>
    <linearGradient inkscape:collect="always" xlink:href="#linearGradient4474" id="linearGradient2888" gradientUnits="userSpaceOnUse" gradientTransform="matrix(1,0,0,1.0544388,0,0.15994878)" x1="76.207245" y1="-7.1895361" x2="43.183071" y2="-43.949013"/>
    <inkscape:perspective id="perspective2904" inkscape:persp3d-origin="0.5 : 0.33333333 : 1" inkscape:vp_z="1 : 0.5 : 1" inkscape:vp_y="0 : 1000 : 0" inkscape:vp_x="0 : 0.5 : 1" sodipodi:type="inkscape:persp3d"/>
    <linearGradient inkscape:collect="always" xlink:href="#linearGradient4474-7" id="linearGradient2888-1" gradientUnits="userSpaceOnUse" gradientTransform="matrix(1,0,0,1.0544388,-33.28072,38.998643)" x1="62.904049" y1="-11.34953" x2="43.183071" y2="-43.949013"/>
    <linearGradient id="linearGradient4474-7">
      <stop offset="0" style="stop-color:#fff" id="stop4476-4"/>
      <stop offset="1" style="stop-color:#fff;stop-opacity:0" id="stop4478-0"/>
    </linearGradient>
    <linearGradient inkscape:collect="always" xlink:href="#G1" id="linearGradient2936" gradientUnits="userSpaceOnUse" gradientTransform="matrix(2.8866652,0,0,1.5492362,36.220077,-42.956956)" x1="12.608996" y1="34.377342" x2="9.5879765" y2="9.5726242"/>
    <linearGradient inkscape:collect="always" xlink:href="#G1" id="linearGradient2943" gradientUnits="userSpaceOnUse" gradientTransform="matrix(2.8866652,0,0,1.5492362,33.918984,-46.696233)" x1="12.608996" y1="34.377342" x2="9.5879765" y2="9.5726242"/>
    <linearGradient inkscape:collect="always" xlink:href="#G1" id="linearGradient2948" gradientUnits="userSpaceOnUse" gradientTransform="matrix(2.8866652,0,0,1.5492362,-14.691185,-14.15386)" x1="12.608996" y1="34.377342" x2="9.5879765" y2="9.5726242"/>
    <linearGradient gradientTransform="matrix(1,0,0,1.0032625,0,-0.07993116)" gradientUnits="userSpaceOnUse" xlink:href="#G3-2" id="G5-7" y2="-4.0458355" x2="18.094919" y1="36.008625" x1="37.521717"/>
    <linearGradient gradientTransform="matrix(2.012297,0,0,1.079974,-1.429495,-2.7348023)" gradientUnits="userSpaceOnUse" xlink:href="#G1-4" id="G4-1" y2="9.5726242" x2="9.5879765" y1="34.377342" x1="12.608996"/>
    <radialGradient gradientTransform="matrix(1,0,0,0.351613,0,16.55413)" gradientUnits="userSpaceOnUse" xlink:href="#G2-4" id="R1-5" fy="25.53125" fx="17.3125" r="9.6875" cy="25.53125" cx="17.3125"/>
    <linearGradient id="G3-2">
      <stop offset="0" style="stop-color:#fff" id="s5-4"/>
      <stop offset="1" style="stop-color:#fff;stop-opacity:0" id="s6-5"/>
    </linearGradient>
    <linearGradient id="G2-4">
      <stop offset="0" style="stop-color:#000" id="s3-8"/>
      <stop offset="1" style="stop-color:#000;stop-opacity:0" id="s4-8"/>
    </linearGradient>
    <linearGradient id="G1-4">
      <stop offset="0" style="stop-color:#f5a108;stop-opacity:0" id="s1-0"/>
      <stop offset="1" style="stop-color:#fefdc3;stop-opacity:0.74" id="s2-9"/>
    </linearGradient>
    <inkscape:perspective id="perspective2882" inkscape:persp3d-origin="24 : 16 : 1" inkscape:vp_z="48 : 24 : 1" inkscape:vp_y="0 : 1000 : 0" inkscape:vp_x="0 : 24 : 1" sodipodi:type="inkscape:persp3d"/>
  </defs>
  <path d="M27,25.53125A9.6875,3.40625 0 1 1 7.625,25.53125A9.6875,3.40625 0 1 1 27,25.53125z" transform="matrix(2.182912,0,0,2.1900338,-13.791664,-18.890641)" id="s" style="opacity:0.4;fill:url(#R1)"/>
  <path style="font-size:medium;font-style:normal;font-variant:normal;font-weight:normal;font-stretch:normal;text-indent:0;text-align:start;text-decoration:none;line-height:normal;letter-spacing:normal;word-spacing:normal;text-transform:none;direction:ltr;block-progression:tb;writing-mode:lr-tb;text-anchor:start;color:#000000;fill:#000000;fill-opacity:1;stroke:none;stroke-width:1.89999998;marker:none;visibility:visible;display:inline;overflow:visible;enable-background:accumulate;font-family:Bitstream Vera Sans;-inkscape-font-specification:Bitstream Vera Sans" d="m 24.37553,3.4324439 c -3.75565,0 -7.132063,1.257436 -8.40625,4.25 -1.036769,2.4349621 -0.491946,5.7401251 1.75,9.8750001 -1.023626,-0.491242 -2.060384,-1.011657 -3.34375,-1.34375 -1.71738,-0.444402 -3.592494,-0.627768 -5.3125005,0.03125 -1.720006,0.659018 -3.180715,2.231598 -3.875,4.75 -1.154028,4.186039 0.937292,7.727734 4.4375,9.3125 2.7789505,1.258207 6.4031155,1.351222 10.1562505,0.125 -0.834377,0.840958 -1.752127,1.613769 -2.75,2.40625 -0.690886,0.545991 -1.376664,1.050312 -1.8125,1.875 -0.232772,0.453718 -0.116267,0.929684 0.03125,1.25 0.01136,0.04203 -0.02001,0.04726 0,0.09375 0.01445,0.03358 0.01144,0.02686 0.03125,0.0625 0.0091,0.01645 -0.0104,0.0144 0,0.03125 l 0.03125,-0.03125 c 0.246905,0.3888 0.649859,0.723444 1.21875,0.71875 l 15.6875,0 c 0.568905,0.0047 0.971839,-0.32992 1.21875,-0.71875 l 0.03125,0.03125 c 0.0104,-0.01686 -0.0091,-0.0148 0,-0.03125 0.01982,-0.03565 0.01679,-0.02892 0.03125,-0.0625 0.02002,-0.0465 -0.01136,-0.05171 0,-0.09375 0.147521,-0.320325 0.263999,-0.796298 0.03125,-1.25 -0.435836,-0.824692 -1.121614,-1.329011 -1.8125,-1.875 a 0.95009499,0.95009499 0 0 0 -0.03125,0 c -0.856934,-0.643434 -1.507416,-1.435182 -2.25,-2.15625 3.609301,1.087065 7.070492,0.931934 9.75,-0.28125 3.500208,-1.584767 5.591528,-5.12646 4.4375,-9.3125 -0.69448,-2.519105 -2.151104,-4.082001 -3.875,-4.75 -1.723896,-0.667999 -3.586302,-0.525293 -5.3125,-0.09375 -1.308551,0.327133 -2.398847,0.853691 -3.4375,1.34375 2.257226,-4.150318 2.789466,-7.464953 1.75,-9.9062501 -1.274187,-2.992564 -4.61935,-4.25 -8.375,-4.25 z" id="path2894"/>
  <path style="font-size:medium;font-style:normal;font-variant:normal;font-weight:normal;font-stretch:normal;text-indent:0;text-align:start;text-decoration:none;line-height:normal;letter-spacing:normal;word-spacing:normal;text-transform:none;direction:ltr;block-progression:tb;writing-mode:lr-tb;text-anchor:start;color:#000000;fill:#1b1e20;fill-opacity:1;stroke:none;stroke-width:1.89999998;marker:none;visibility:visible;display:inline;overflow:visible;enable-background:accumulate;font-family:Bitstream Vera Sans;-inkscape-font-specification:Bitstream Vera Sans" d="m 24.37553,5.3386939 c 3.342793,0 5.749804,1.038258 6.625,3.09375 0.875196,2.0554921 0.345992,5.6246421 -3.28125,10.9687501 a 0.95009499,0.95009499 0 0 0 1.3125,1.34375 c 0,0 2.832542,-1.903459 5.84375,-2.65625 1.505604,-0.376396 3.010612,-0.424787 4.1875,0.03125 1.176888,0.456037 2.14141,1.374548 2.71875,3.46875 0.939825,3.409053 -0.529711,5.805507 -3.375,7.09375 -2.845289,1.288243 -7.13432,1.243229 -11.4375,-1 a 0.95009499,0.95009499 0 0 0 -1.3125,1.15625 c 0.03697,0.09851 0.06314,0.236436 0.125,0.46875 0.05738,0.215494 0.165512,0.532552 0.375,0.8125 0.01358,0.01856 0.0176,0.04403 0.03125,0.0625 1.236057,1.671881 2.781834,2.982213 4.34375,4.15625 0.0064,0.0048 0.02489,-0.0048 0.03125,0 0.339064,0.26843 0.409848,0.42459 0.625,0.625 l -13.625,0 c 0.220662,-0.205543 0.305402,-0.347733 0.65625,-0.625 1.487976,-1.181705 3.164447,-2.425527 4.375,-4.25 a 0.95009499,0.95009499 0 0 0 0.09375,-0.125 c 0.104739,-0.240121 0.459409,-0.704651 0.53125,-1.46875 a 0.95009499,0.95009499 0 0 0 -1.375,-0.90625 c -4.30318,2.243229 -8.592211,2.288243 -11.4375,1 -2.8452895,-1.288243 -4.3148255,-3.684698 -3.3750005,-7.09375 0.577534,-2.094906 1.520206,-3.021503 2.6875,-3.46875 1.1672945,-0.447247 2.6598065,-0.355981 4.1562505,0.03125 2.992889,0.774462 5.8125,2.6875 5.8125,2.6875 a 0.95017474,0.95017474 0 1 0 1.34375,-1.34375 c -3.627242,-5.344108 -4.187696,-8.913258 -3.3125,-10.9687501 0.875196,-2.055492 3.313457,-3.09375 6.65625,-3.09375 z" id="path2876"/>
  <path style="font-size:medium;font-style:normal;font-variant:normal;font-weight:normal;font-stretch:normal;text-indent:0;text-align:start;text-decoration:none;line-height:normal;letter-spacing:normal;word-spacing:normal;text-transform:none;direction:ltr;block-progression:tb;writing-mode:lr-tb;text-anchor:start;opacity:0.40000000000000002;color:#000000;fill:url(#linearGradient2888-1);fill-opacity:1;stroke:none;stroke-width:0.10000000000000001;marker:none;visibility:visible;display:inline;overflow:visible;enable-background:accumulate;font-family:Bitstream Vera Sans;-inkscape-font-specification:Bitstream Vera Sans" d="m 24.37553,4.4011939 c -7.098443,0 -11.548729,4.624932 -4.125,15.5625001 0,0 -11.6126115,-7.945363 -14.1562505,1.28125 -2.093853,7.595093 7.1366535,11.905667 16.1875005,7.1875 -0.04156,0.44203 -0.299786,0.768891 -0.46875,1.15625 -1.091046,1.644359 -2.682664,2.804905 -4.1875,4 -0.696291,0.550262 -1.266467,1.002347 -1.5625,1.5625 -0.07706,0.150205 -0.0471,0.320763 0.03125,0.46875 0.005,0.0095 -0.0057,0.02201 0,0.03125 0.09385,0.15314 0.258446,0.251477 0.4375,0.25 l 15.6875,0 c 0.179054,0.0015 0.343655,-0.09686 0.4375,-0.25 0.0057,-0.0092 -0.005,-0.02175 0,-0.03125 0.07835,-0.147987 0.108305,-0.318545 0.03125,-0.46875 -0.296032,-0.560154 -0.866209,-1.012239 -1.5625,-1.5625 -1.552656,-1.165821 -3.022836,-2.408693 -4.1875,-4 -0.277287,-0.339321 -0.320544,-0.761345 -0.46875,-1.15625 9.050847,4.718166 18.250103,0.407593 16.15625,-7.1875 -2.543639,-9.226613 -14.125,-1.28125 -14.125,-1.28125 7.423729,-10.9375681 2.973443,-15.5625001 -4.125,-15.5625001 z m 0,0.9375 c 3.342793,0 5.749804,1.038258 6.625,3.09375 0.875196,2.0554921 0.345992,5.6246421 -3.28125,10.9687501 a 0.95009499,0.95009499 0 0 0 1.3125,1.34375 c 0,0 2.832542,-1.903459 5.84375,-2.65625 1.505604,-0.376396 3.010612,-0.424787 4.1875,0.03125 1.176888,0.456037 2.14141,1.374548 2.71875,3.46875 0.939825,3.409053 -0.529711,5.805507 -3.375,7.09375 -2.845289,1.288243 -7.13432,1.243229 -11.4375,-1 a 0.95009499,0.95009499 0 0 0 -1.3125,1.15625 c 0.03697,0.09851 0.06314,0.236436 0.125,0.46875 0.05738,0.215494 0.165512,0.532552 0.375,0.8125 0.01358,0.01856 0.0176,0.04403 0.03125,0.0625 1.236057,1.671881 2.781834,2.982213 4.34375,4.15625 0.0064,0.0048 0.02489,-0.0048 0.03125,0 0.339064,0.26843 0.409848,0.42459 0.625,0.625 l -13.625,0 c 0.220662,-0.205543 0.305402,-0.347733 0.65625,-0.625 1.487976,-1.181705 3.164447,-2.425527 4.375,-4.25 a 0.95009499,0.95009499 0 0 0 0.09375,-0.125 c 0.104739,-0.240121 0.459409,-0.704651 0.53125,-1.46875 a 0.95009499,0.95009499 0 0 0 -1.375,-0.90625 c -4.30318,2.243229 -8.592211,2.288243 -11.4375,1 -2.6543325,-1.201784 -4.0793965,-3.384439 -3.5000005,-6.4375 0.04168,-0.219643 0.06193,-0.427456 0.125,-0.65625 0.577534,-2.094906 1.520206,-3.021503 2.6875,-3.46875 1.1672945,-0.447247 2.6598065,-0.355981 4.1562505,0.03125 2.992889,0.774462 5.8125,2.6875 5.8125,2.6875 a 0.95017474,0.95017474 0 0 0 0.78125,0.28125 0.95017474,0.95017474 0 0 0 0.4375,-0.1875 1.0001,1.0545442 0 0 0 0.125,-0.125 1.0001,1.0545442 0 0 0 0.1875,-0.28125 1.0001,1.0545442 0 0 0 0.03125,-0.03125 0.95017474,0.95017474 0 0 0 0,-0.0625 1.0001,1.0545442 0 0 0 0.03125,-0.03125 0.95017474,0.95017474 0 0 0 0,-0.0625 1.0001,1.0545442 0 0 0 0.03125,-0.21875 1.0001,1.0545442 0 0 0 -0.0625,-0.28125 0.95017474,0.95017474 0 0 0 0,-0.03125 1.0001,1.0545442 0 0 0 -0.03125,-0.0625 0.95017474,0.95017474 0 0 0 0,-0.03125 1.0001,1.0545442 0 0 0 -0.03125,-0.03125 0.95017474,0.95017474 0 0 0 -0.15625,-0.1875 c -3.627242,-5.344108 -4.187696,-8.913258 -3.3125,-10.9687501 0.875196,-2.055492 3.313457,-3.09375 6.65625,-3.09375 z" id="path2874"/>
  <path style="opacity:0.34999999999999998;fill:url(#linearGradient2948)" d="M 24.375 4.40625 C 17.803031 4.40625 13.523085 8.3882363 18.8125 17.65625 C 18.894628 17.580031 18.980821 17.514512 19.0625 17.4375 C 24.538947 12.27396 28.739313 10.932876 32.3125 10.65625 C 32.428135 6.3363865 28.962999 4.40625 24.375 4.40625 z M 11.6875 16.78125 C 9.2736173 16.736159 7.0476146 17.79002 6.09375 21.25 C 5.631335 22.927331 5.7316995 24.423676 6.25 25.71875 C 9.870604 24.33233 14.022075 21.863862 17.8125 18.5625 C 16.138842 17.726359 13.843902 16.821531 11.6875 16.78125 z " id="p4"/>
</svg>