<?xml version="1.0" encoding="UTF-8"?>
<svg xmlns="http://www.w3.org/2000/svg" xmlns:svg="http://www.w3.org/2000/svg" xmlns:xlink="http://www.w3.org/1999/xlink" version="1.0" width="48" height="48" id="svg2">
<defs id="defs4">
<linearGradient id="G1">
 <stop id="s1" style="stop-color:#f5a108;stop-opacity:0" offset="0"/>
 <stop id="s2" style="stop-color:#fefdc3;stop-opacity:0.74" offset="1"/>
</linearGradient>
<!--<linearGradient id="G2">
 <stop id="s3" style="stop-color:#000" offset="0"/>
 <stop id="s4" style="stop-color:#000;stop-opacity:0" offset="1"/>
</linearGradient> -->
<linearGradient id="G3">
 <stop id="s5" style="stop-color:#fff" offset="0"/>
 <stop id="s6" style="stop-color:#fff;stop-opacity:0" offset="1"/>
</linearGradient>
<radialGradient cx="17.3125" cy="25.53125" r="9.6875" fx="17.3125" fy="25.53125" id="R1" xlink:href="#G2" gradientUnits="userSpaceOnUse" gradientTransform="matrix(1,0,0,0.351613,0,16.55413)"/>
<linearGradient x1="12.608996" y1="34.377342" x2="9.5879765" y2="9.5726242" id="G4" xlink:href="#G1" gradientUnits="userSpaceOnUse" gradientTransform="matrix(2.012297,0,0,1.079974,-1.429495,-2.7348023)"/>
<linearGradient x1="37.521717" y1="36.008625" x2="18.094919" y2="-4.0458355" id="G5" xlink:href="#G3" gradientUnits="userSpaceOnUse" gradientTransform="matrix(1,0,0,1.0032625,0,-7.9931165e-2)"/>
</defs>
<path d="M27,25.53125A9.6875,3.40625 0 1 1 7.625,25.53125A9.6875,3.40625 0 1 1 27,25.53125z" transform="matrix(2.182912,0,0,2.1900338,-13.791664,-18.890641)" id="s" style="opacity:0.4;fill:url(#R1)"/>
<path d="M24,4.53125C23.85404,4.5312498 23.769144,4.5667816 23.65625,4.65625C23.65625,4.6562501 19.525116,8.0042334 15.375,12.25C13.299942,14.372884 11.19751,16.721871 9.625,19C9.0353083,19.854298 8.5426168,20.70844 8.125,21.53125C7.8366412,22.049156 7.6307996,22.610312 7.40625,23.15625C7.2222656,23.649745 7.165129,24.144683 7.0625,24.65625C6.9654711,25.110658 7.030927,25.575179 7.03125,26.03125C7.0574246,26.262026 7.1146114,26.490695 7.15625,26.71875C7.1965027,27.0764 7.3621524,27.410313 7.46875,27.75C7.8235016,28.619014 8.3474371,29.371936 9.03125,30C10.270569,31.138282 11.943054,31.84704 13.6875,32.21875C16.196761,32.753429 18.840079,32.488047 20.8125,31.4375C21.22132,31.309249 21.55334,31.04679 21.90625,30.8125C21.864686,31.231709 21.606464,31.538889 21.4375,31.90625C20.346454,33.465714 18.754836,34.585356 17.25,35.71875C16.553709,36.240603 15.983533,36.656267 15.6875,37.1875C15.610445,37.32995 15.640399,37.484653 15.71875,37.625C15.723782,37.634015 15.713087,37.647486 15.71875,37.65625C15.812596,37.801484 15.977196,37.907651 16.15625,37.90625L31.84375,37.90625C32.022804,37.907653 32.187405,37.801485 32.28125,37.65625C32.286913,37.647486 32.276218,37.634014 32.28125,37.625C32.3596,37.484653 32.389555,37.32995 32.3125,37.1875C32.016468,36.656266 31.446291,36.240602 30.75,35.71875C29.197344,34.613118 27.727164,33.415401 26.5625,31.90625C26.285213,31.584448 26.241956,31.187017 26.09375,30.8125C26.639581,31.26955 27.298592,31.492051 27.9375,31.78125C29.80867,32.533268 32.107427,32.688611 34.3125,32.21875C36.056946,31.84704 37.729431,31.138283 38.96875,30C39.652564,29.371935 40.176499,28.619012 40.53125,27.75C40.673705,27.401037 40.799028,27.009632 40.875,26.625C40.992207,26.227482 40.966715,25.813509 41,25.40625C41,24.931448 40.932194,24.44116 40.8125,23.9375C40.776843,23.680421 40.666294,23.436221 40.59375,23.1875C40.103039,21.674082 39.249428,20.319494 38.375,19C36.802491,16.721871 34.700058,14.372884 32.625,12.25C28.474882,8.0042336 24.34375,4.65625 24.34375,4.65625C24.233947,4.5667816 24.14596,4.53125 24,4.53125z" id="p1" style="fill:none;stroke:#000;stroke-width:2;stroke-linejoin:round"/>
<path d="M24,4.508759C23.914252,4.485879 23.733988,4.5829715 23.65625,4.6565762C23.65625,4.6565763 19.525116,8.0039444 15.375,12.249711C13.299942,14.372595 11.19751,16.724493 9.6249999,19.002622C9.0353083,19.856921 8.5426167,20.700484 8.1249999,21.523294C7.8366413,22.0412 7.6307996,22.595565 7.4062499,23.141504C7.1400444,23.875599 7.0813926,24.643938 6.9999999,25.41322C6.9732849,26.222282 7.2367912,26.983965 7.4687499,27.747176C7.8235016,28.616189 8.347437,29.359709 9.0312499,29.987773C10.270569,31.126056 11.943054,31.85666 13.6875,32.22837C16.196761,32.76305 18.840079,32.500932 20.8125,31.450385C21.22132,31.322133 21.55334,31.031167 21.90625,30.796877C21.864686,31.216086 21.606464,31.549815 21.4375,31.917176C20.346454,33.476639 18.754836,34.58035 17.25,35.713744C16.553709,36.235598 15.983533,36.645123 15.6875,37.176356C15.371226,37.61961 16.041991,37.717638 16.15625,37.892102L31.84375,37.892102C32.022804,37.893504 32.187405,37.788382 32.28125,37.643147C32.286913,37.634383 32.276218,37.621041 32.28125,37.612027C32.3596,37.471679 32.389555,37.318806 32.3125,37.176356C30.524552,35.276188 28.180957,34.014343 26.5625,31.917176C26.285213,31.595373 26.241956,31.171394 26.09375,30.796877C26.639581,31.253928 27.298592,31.503499 27.9375,31.792698C29.80867,32.544716 32.107427,32.698231 34.3125,32.22837C36.056946,31.856661 37.729431,31.126056 38.96875,29.987773C39.652564,29.359709 40.176499,28.616188 40.53125,27.747176C40.673705,27.398212 40.799028,27.011509 40.875,26.626877C41.175901,25.451382 40.946698,24.402034 40.59375,23.172623C40.103863,21.664269 39.247796,20.316863 38.375,19.002622C36.802491,16.724494 34.700058,14.372595 32.625,12.249711C28.474882,8.0039446 24.34375,4.6565762 24.34375,4.6565762C24.237191,4.557589 24,4.508759 24,4.508759z" id="p2" style="fill:#1b1e20"/>
<path d="M23.94355,4.3260894C23.83508,4.3412669 23.734564,4.389489 23.656826,4.4636437C23.656826,4.4636437 19.520618,7.8341655 15.370502,12.11166C13.295444,14.250408 11.208532,16.611687 9.6360213,18.90684C8.063511,21.201993 6.9981602,23.4195 6.9981602,25.371889C6.9981602,27.278136 7.7945813,28.846923 9.0339009,29.993712C10.27322,31.140502 11.934385,31.875114 13.67883,32.249602C16.681365,32.894169 19.916466,32.413118 21.90781,30.764016C21.829681,31.150043 21.689718,31.534531 21.449051,31.919471C20.365042,33.49903 18.772502,34.606537 17.262881,35.74348C16.566589,36.269233 15.981932,36.693863 15.685898,37.229066C15.603895,37.381797 15.611133,37.564559 15.704978,37.710879C15.798824,37.857199 15.965603,37.945759 16.144657,37.944348L31.857134,37.944348C32.036188,37.945759 32.202967,37.857199 32.296812,37.710879C32.390658,37.564559 32.397895,37.381797 32.315892,37.229066C32.019859,36.693863 31.435201,36.269232 30.73891,35.74348C30.042619,35.217728 29.239006,34.628058 28.47379,33.982785C27.708575,33.337513 26.999712,32.634396 26.552739,31.919471C26.312073,31.534531 26.17211,31.150043 26.093981,30.764016C28.085325,32.413118 31.320426,32.894169 34.32296,32.249602C36.067406,31.875114 37.72857,31.140502 38.96789,29.993712C40.207209,28.846923 41.003629,27.278136 41.00363,25.371889C41.00363,23.4195 39.970343,21.179692 38.365769,18.90684C36.855759,16.767937 35.665751,15.351031 32.553164,12.14291C29.440577,8.9347887 24.344964,4.4636437 24.344964,4.4636437C24.238406,4.3639166 24.091844,4.3136937 23.94355,4.3260894zM24.000895,5.509056C24.501036,5.9211458 28.061117,8.8298412 31.885806,12.771921C33.936767,14.885831 35.983593,17.235619 37.505597,19.457057C39.027602,21.678494 40.000096,23.785353 40.000096,25.371889C40.000096,27.017785 39.320367,28.288979 38.25108,29.27843C37.181793,30.267882 35.689247,30.971684 34.093581,31.314233C30.90225,31.999331 27.361281,31.262365 25.979291,29.388474C25.86445,29.229469 25.662949,29.150059 25.464781,29.185711C25.266614,29.221361 25.10878,29.365417 25.061774,29.553539C24.833692,30.58442 25.128482,31.585795 25.663895,32.442178C26.199307,33.29856 26.979051,34.045407 27.785653,34.725579C28.722051,35.470672 29.6771,36.191101 30.595548,36.953957L17.406243,36.953957C18.292218,36.153226 19.282474,35.471837 20.216138,34.725579C21.02274,34.045407 21.802484,33.29856 22.337896,32.442178C22.873308,31.585795 23.168098,30.58442 22.940016,29.553539C22.89301,29.365417 22.735177,29.221361 22.53701,29.185711C22.338842,29.150059 22.13734,29.229469 22.022499,29.388474C20.640511,31.262365 17.099541,31.999331 13.908209,31.314233C12.312544,30.971684 10.819998,30.267883 9.7507109,29.27843C8.6814244,28.288978 8.0016944,27.017785 8.0016944,25.371889C8.0016944,23.785353 8.9741894,21.678494 10.496193,19.457057C12.018197,17.235619 14.065023,14.885831 16.115984,12.771921C19.940673,8.8298412 23.500755,5.9211458 24.000895,5.509056z" id="p3" style="opacity:0.4;fill:url(#G5)"/>
<path d="M15.152104,12.478529C11.989885,15.575001 6.7513383,21.888982 7.0014757,25.181882C8.8001637,27.418083 16.321792,24.769191 22.12009,19.302189C27.918388,13.835187 31.663942,14.387729 34.943109,14.59733C30.055924,9.7242158 29.936956,9.6222923 24.199591,4.5150959C24.123319,4.4472011 23.857616,4.4430738 23.780254,4.5118507C18.486992,9.2177077 18.298536,9.3975164 15.152104,12.478529z" id="p4" style="opacity:0.35;fill:url(#G4)"/>
</svg>